<svg width="59" height="59" viewBox="0 0 59 59" fill="none" xmlns="http://www.w3.org/2000/svg">
<circle cx="26.5" cy="31.8301" r="26.46" fill="#D7EAFF"/>
<path d="M19.5615 26.3499H19.5725M19.5615 37.2136H19.5725M17.374 22.7286H34.874C36.0821 22.7286 37.0615 23.5393 37.0615 24.5393V28.1605C37.0615 29.1605 36.0821 29.9711 34.874 29.9711H17.374C16.1659 29.9711 15.1865 29.1605 15.1865 28.1605V24.5393C15.1865 23.5393 16.1659 22.7286 17.374 22.7286ZM17.374 33.5924H34.874C36.0821 33.5924 37.0615 34.403 37.0615 35.403V39.0243C37.0615 40.0243 36.0821 40.8349 34.874 40.8349H17.374C16.1659 40.8349 15.1865 40.0243 15.1865 39.0243V35.403C15.1865 34.403 16.1659 33.5924 17.374 33.5924Z" stroke="#1873DE" stroke-width="1.81062" stroke-linecap="round" stroke-linejoin="round"/>
<rect x="37" width="22" height="22" rx="11" fill="#E6372B"/>
<path d="M50.0623 9.43426L46.9373 12.8197M46.9373 9.43426L50.0623 12.8197M53.4998 11.8041C53.4998 15.1895 51.3123 16.8822 48.7123 17.864C48.5761 17.9139 48.4282 17.9115 48.2935 17.8572C45.6873 16.8822 43.4998 15.1895 43.4998 11.8041V7.06447C43.4998 6.8849 43.5656 6.71268 43.6828 6.5857C43.8 6.45872 43.959 6.38739 44.1248 6.38739C45.3748 6.38739 46.9373 5.57489 48.0248 4.54572C48.1572 4.42317 48.3256 4.35583 48.4998 4.35583C48.6739 4.35583 48.8423 4.42317 48.9748 4.54572C50.0685 5.58166 51.6248 6.38739 52.8748 6.38739C53.0405 6.38739 53.1995 6.45872 53.3167 6.5857C53.4339 6.71268 53.4998 6.8849 53.4998 7.06447V11.8041Z" stroke="#FFF8F7" stroke-width="0.739568" stroke-linecap="round" stroke-linejoin="round"/>
</svg>
